<svg width="240" height="104" viewBox="0 0 240 104" fill="none" xmlns="http://www.w3.org/2000/svg">
<g clip-path="url(#clip0_1_1101)">
<path d="M23.5129 42.9031H164.322C164.92 42.9031 165.493 43.1403 165.916 43.5626C166.339 43.985 166.577 44.5577 166.577 45.155C166.577 45.7522 166.339 46.325 165.916 46.7473C165.493 47.1696 164.92 47.4068 164.322 47.4068H160.334V101.279C160.334 101.876 160.096 102.449 159.673 102.871C159.251 103.294 158.677 103.531 158.079 103.531C157.482 103.531 156.908 103.294 156.485 102.871C156.063 102.449 155.825 101.876 155.825 101.279L155.791 47.4068H42.7771L32.3569 101.279C32.3569 101.876 32.1194 102.449 31.6966 102.871C31.2738 103.294 30.7004 103.531 30.1025 103.531C29.5046 103.531 28.9312 103.294 28.5085 102.871C28.0857 102.449 27.8482 101.876 27.8482 101.279L27.1923 47.4068H23.5129C22.9151 47.4068 22.3416 47.1696 21.9189 46.7473C21.4961 46.325 21.2586 45.7522 21.2586 45.155C21.2586 44.5577 21.4961 43.985 21.9189 43.5626C22.3416 43.1403 22.9151 42.9031 23.5129 42.9031Z" fill="#CCCCCC"/>
<path d="M139.915 32.869V42.4051H163.832C164.459 42.4269 165.084 42.3251 165.672 42.1056C166.259 41.8862 166.798 41.5532 167.256 41.1259C167.715 40.6985 168.085 40.1851 168.345 39.615C168.605 39.0448 168.75 38.4291 168.772 37.8029C168.793 37.1768 168.692 36.5525 168.472 35.9656C168.252 35.3788 167.919 34.841 167.491 34.3828C167.063 33.9247 166.549 33.5552 165.978 33.2954C165.408 33.0357 164.791 32.8908 164.164 32.869C164.054 32.8651 163.943 32.8651 163.832 32.869L139.915 32.869Z" fill="#F2F2F2"/>
<path d="M139.327 42.3317C139.327 42.429 139.366 42.5223 139.435 42.5911C139.504 42.6598 139.597 42.6985 139.694 42.6985H164.258C165.592 42.6976 166.87 42.1678 167.813 41.2255C168.756 40.2833 169.285 39.0058 169.285 37.6737C169.285 36.3417 168.756 35.0641 167.813 34.1219C166.87 33.1796 165.592 32.6498 164.258 32.6489H139.694C139.646 32.6488 139.598 32.6582 139.554 32.6766C139.509 32.6949 139.468 32.7219 139.434 32.756C139.4 32.7901 139.373 32.8305 139.354 32.8751C139.336 32.9197 139.326 32.9674 139.326 33.0157C139.326 33.0639 139.336 33.1117 139.354 33.1563C139.373 33.2008 139.4 33.2413 139.434 33.2754C139.468 33.3094 139.509 33.3364 139.554 33.3548C139.598 33.3732 139.646 33.3826 139.694 33.3825H164.258C165.396 33.3842 166.488 33.8371 167.292 34.6416C168.096 35.4462 168.548 36.5367 168.548 37.6737C168.548 38.8107 168.096 39.9012 167.292 40.7058C166.488 41.5104 165.396 41.9633 164.258 41.965H139.694C139.597 41.965 139.504 42.0037 139.435 42.0724C139.366 42.1412 139.327 42.2345 139.327 42.3317Z" fill="white"/>
<path d="M139.915 35.0696H165.617C165.636 35.0697 165.655 35.0621 165.669 35.0485C165.683 35.0349 165.69 35.0164 165.691 34.9969C165.691 34.9775 165.683 34.9589 165.67 34.945C165.656 34.9311 165.638 34.9232 165.618 34.9229H139.915C139.895 34.9231 139.877 34.9309 139.863 34.9447C139.85 34.9584 139.842 34.9769 139.842 34.9963C139.842 35.0156 139.85 35.0342 139.863 35.0479C139.877 35.0616 139.895 35.0694 139.915 35.0696Z" fill="#CCCCCC"/>
<path d="M139.915 36.8302H165.617C165.636 36.8303 165.655 36.8227 165.669 36.8091C165.683 36.7954 165.69 36.7769 165.691 36.7575C165.691 36.7381 165.683 36.7194 165.67 36.7055C165.656 36.6916 165.638 36.6837 165.618 36.6835H139.915C139.895 36.6836 139.877 36.6915 139.863 36.7052C139.85 36.7189 139.842 36.7375 139.842 36.7568C139.842 36.7761 139.85 36.7947 139.863 36.8084C139.877 36.8222 139.895 36.83 139.915 36.8302Z" fill="#CCCCCC"/>
<path d="M139.915 38.5907H165.617C165.636 38.5908 165.655 38.5832 165.669 38.5696C165.683 38.5559 165.69 38.5374 165.691 38.518C165.691 38.4986 165.683 38.4799 165.67 38.466C165.656 38.4521 165.638 38.4442 165.618 38.444H139.915C139.895 38.4442 139.877 38.452 139.863 38.4657C139.85 38.4794 139.842 38.498 139.842 38.5173C139.842 38.5366 139.85 38.5552 139.863 38.5689C139.877 38.5827 139.895 38.5905 139.915 38.5907Z" fill="#CCCCCC"/>
<path d="M139.915 40.3512H165.617C165.636 40.3513 165.655 40.3437 165.669 40.33C165.683 40.3164 165.69 40.2979 165.691 40.2785C165.691 40.2591 165.683 40.2404 165.67 40.2265C165.656 40.2126 165.638 40.2047 165.618 40.2045H139.915C139.895 40.2046 139.877 40.2125 139.863 40.2262C139.85 40.2399 139.842 40.2585 139.842 40.2778C139.842 40.2971 139.85 40.3157 139.863 40.3294C139.877 40.3432 139.895 40.351 139.915 40.3512Z" fill="#CCCCCC"/>
<path d="M144.423 22.8221V32.3582H168.341C169.607 32.4022 170.839 31.9421 171.765 31.079C172.691 30.2159 173.236 29.0206 173.28 27.7561C173.324 26.4915 172.864 25.2612 172 24.3359C171.136 23.4107 169.939 22.8661 168.673 22.8221C168.562 22.8183 168.452 22.8183 168.341 22.8221H144.423Z" fill="#F2F2F2"/>
<path d="M143.836 32.2849C143.836 32.3822 143.875 32.4754 143.944 32.5442C144.012 32.613 144.106 32.6516 144.203 32.6517H168.767C170.101 32.6517 171.381 32.1223 172.324 31.1799C173.267 30.2376 173.797 28.9595 173.797 27.6269C173.797 26.2942 173.267 25.0161 172.324 24.0738C171.381 23.1315 170.101 22.6021 168.767 22.6021H144.203C144.155 22.6021 144.107 22.6116 144.063 22.63C144.018 22.6484 143.978 22.6754 143.943 22.7095C143.909 22.7435 143.882 22.784 143.864 22.8285C143.845 22.873 143.836 22.9207 143.836 22.9688C143.836 23.017 143.845 23.0647 143.864 23.1092C143.882 23.1537 143.909 23.1941 143.943 23.2282C143.978 23.2622 144.018 23.2893 144.063 23.3077C144.107 23.3261 144.155 23.3356 144.203 23.3356H168.767C169.906 23.3356 170.999 23.7877 171.805 24.5925C172.61 25.3973 173.063 26.4888 173.063 27.6269C173.063 28.765 172.61 29.8565 171.805 30.6612C170.999 31.466 169.906 31.9181 168.767 31.9181H144.203C144.106 31.9182 144.012 31.9568 143.944 32.0256C143.875 32.0944 143.836 32.1876 143.836 32.2849Z" fill="#3F3D56"/>
<path d="M144.423 25.0228H170.126C170.145 25.0229 170.164 25.0153 170.177 25.0017C170.191 24.988 170.199 24.9695 170.199 24.9501C170.2 24.9307 170.192 24.912 170.178 24.8981C170.165 24.8842 170.146 24.8763 170.127 24.8761H144.423C144.404 24.8763 144.386 24.8841 144.372 24.8978C144.358 24.9115 144.351 24.9301 144.351 24.9494C144.351 24.9687 144.358 24.9873 144.372 25.001C144.386 25.0148 144.404 25.0226 144.423 25.0228Z" fill="#CCCCCC"/>
<path d="M144.423 26.7833H170.126C170.145 26.7834 170.164 26.7758 170.177 26.7622C170.191 26.7486 170.199 26.73 170.199 26.7106C170.2 26.6912 170.192 26.6725 170.178 26.6586C170.165 26.6448 170.146 26.6368 170.127 26.6366H144.423C144.404 26.6368 144.386 26.6446 144.372 26.6583C144.358 26.6721 144.351 26.6906 144.351 26.7099C144.351 26.7293 144.358 26.7478 144.372 26.7615C144.386 26.7753 144.404 26.7831 144.423 26.7833Z" fill="#CCCCCC"/>
<path d="M144.423 28.5438H170.126C170.145 28.5439 170.164 28.5363 170.177 28.5227C170.191 28.5091 170.199 28.4905 170.199 28.4711C170.2 28.4517 170.192 28.433 170.178 28.4191C170.165 28.4053 170.146 28.3973 170.127 28.3971H144.423C144.404 28.3973 144.386 28.4051 144.372 28.4188C144.358 28.4326 144.351 28.4511 144.351 28.4704C144.351 28.4898 144.358 28.5083 144.372 28.522C144.386 28.5358 144.404 28.5436 144.423 28.5438Z" fill="#CCCCCC"/>
<path d="M144.423 30.3043H170.126C170.145 30.3044 170.164 30.2968 170.177 30.2832C170.191 30.2696 170.199 30.251 170.199 30.2316C170.2 30.2122 170.192 30.1935 170.178 30.1797C170.165 30.1658 170.146 30.1578 170.127 30.1576H144.423C144.404 30.1578 144.386 30.1656 144.372 30.1793C144.358 30.1931 144.351 30.2116 144.351 30.2309C144.351 30.2503 144.358 30.2688 144.372 30.2826C144.386 30.2963 144.404 30.3041 144.423 30.3043Z" fill="#CCCCCC"/>
<path d="M116.6 76.6473V68.3327C116.6 67.9651 116.746 67.6127 117.006 67.3528C117.267 67.0929 117.619 66.9469 117.987 66.9469H149.548C149.916 66.9469 150.269 67.0929 150.529 67.3528C150.789 67.6127 150.935 67.9651 150.935 68.3327V76.6473H116.6Z" fill="#CCCCCC"/>
<path d="M116.6 79.7653H150.935V90.5051H116.6V79.7653Z" fill="#CCCCCC"/>
<path d="M150.935 93.6231V101.938C150.935 102.305 150.789 102.658 150.529 102.918C150.269 103.177 149.916 103.323 149.548 103.324H117.987C117.619 103.323 117.267 103.177 117.006 102.918C116.746 102.658 116.6 102.305 116.6 101.938V93.6231H150.935Z" fill="#CCCCCC"/>
<path d="M133.941 73.1829C133.366 73.1829 132.901 72.7175 132.901 72.1435C132.901 71.5695 133.366 71.1042 133.941 71.1042C134.516 71.1042 134.982 71.5695 134.982 72.1435C134.982 72.7175 134.516 73.1829 133.941 73.1829Z" fill="white"/>
<path d="M133.941 87.0406C133.366 87.0406 132.901 86.5753 132.901 86.0013C132.901 85.4273 133.366 84.962 133.941 84.962C134.516 84.962 134.982 85.4273 134.982 86.0013C134.982 86.5753 134.516 87.0406 133.941 87.0406Z" fill="white"/>
<path d="M133.885 100.605C133.311 100.605 132.845 100.14 132.845 99.5656C132.845 98.9916 133.311 98.5263 133.885 98.5263C134.46 98.5263 134.926 98.9916 134.926 99.5656C134.926 100.14 134.46 100.605 133.885 100.605Z" fill="white"/>
<path d="M120.493 57.4665V67.0026H144.41C145.676 67.0457 146.906 66.5852 147.832 65.7222C148.758 64.8593 149.302 63.6645 149.346 62.4005C149.39 61.1365 148.93 59.9068 148.067 58.9816C147.204 58.0564 146.008 57.5114 144.743 57.4665C144.632 57.4627 144.521 57.4627 144.41 57.4665H120.493Z" fill="#F2F2F2"/>
<path d="M119.905 66.9293C119.905 67.0265 119.944 67.1198 120.013 67.1886C120.082 67.2573 120.175 67.296 120.272 67.296H144.836C146.17 67.2964 147.449 66.7675 148.393 65.8258C149.337 64.8841 149.867 63.6066 149.868 62.2743C149.869 60.9419 149.34 59.6638 148.397 58.7209C147.455 57.7781 146.176 57.2477 144.842 57.2464H120.272C120.224 57.2463 120.176 57.2557 120.132 57.2741C120.087 57.2925 120.046 57.3195 120.012 57.3535C119.978 57.3876 119.951 57.4281 119.932 57.4726C119.914 57.5172 119.904 57.565 119.904 57.6132C119.904 57.6615 119.914 57.7092 119.932 57.7538C119.951 57.7983 119.978 57.8388 120.012 57.8729C120.046 57.907 120.087 57.934 120.132 57.9523C120.176 57.9707 120.224 57.9801 120.272 57.98H144.836C145.975 57.9815 147.066 58.4342 147.87 59.2388C148.675 60.0434 149.127 61.1341 149.127 62.2712C149.127 63.4084 148.675 64.499 147.87 65.3036C147.066 66.1082 145.975 66.561 144.836 66.5625H120.272C120.175 66.5625 120.082 66.6012 120.013 66.67C119.944 66.7387 119.905 66.832 119.905 66.9293Z" fill="#3F3D56"/>
<path d="M120.493 59.6671H146.195C146.214 59.6672 146.233 59.6597 146.247 59.646C146.261 59.6324 146.269 59.6139 146.269 59.5945C146.269 59.5751 146.261 59.5564 146.248 59.5425C146.234 59.5286 146.216 59.5207 146.196 59.5204H120.493C120.473 59.5206 120.455 59.5284 120.441 59.5422C120.428 59.5559 120.42 59.5745 120.42 59.5938C120.42 59.6131 120.428 59.6317 120.441 59.6454C120.455 59.6591 120.473 59.6669 120.493 59.6671H120.493Z" fill="#CCCCCC"/>
<path d="M120.493 61.4277H146.195C146.214 61.4278 146.233 61.4202 146.247 61.4066C146.261 61.393 146.269 61.3744 146.269 61.355C146.269 61.3356 146.261 61.3169 146.248 61.303C146.234 61.2892 146.216 61.2812 146.196 61.281H120.493C120.473 61.2812 120.455 61.289 120.441 61.3027C120.428 61.3165 120.42 61.335 120.42 61.3543C120.42 61.3737 120.428 61.3922 120.441 61.4059C120.455 61.4197 120.473 61.4275 120.493 61.4277H120.493Z" fill="#CCCCCC"/>
<path d="M120.493 63.1882H146.195C146.214 63.1883 146.233 63.1807 146.247 63.1671C146.261 63.1534 146.269 63.1349 146.269 63.1155C146.269 63.0961 146.261 63.0774 146.248 63.0635C146.234 63.0497 146.216 63.0417 146.196 63.0415H120.493C120.473 63.0417 120.455 63.0495 120.441 63.0632C120.428 63.0769 120.42 63.0955 120.42 63.1148C120.42 63.1342 120.428 63.1527 120.441 63.1664C120.455 63.1802 120.473 63.188 120.493 63.1882H120.493Z" fill="#CCCCCC"/>
<path d="M120.493 64.9487H146.195C146.214 64.9488 146.233 64.9412 146.247 64.9276C146.261 64.914 146.269 64.8954 146.269 64.876C146.269 64.8566 146.261 64.8379 146.248 64.824C146.234 64.8102 146.216 64.8022 146.196 64.802H120.493C120.473 64.8022 120.455 64.81 120.441 64.8237C120.428 64.8375 120.42 64.856 120.42 64.8753C120.42 64.8947 120.428 64.9132 120.441 64.9269C120.455 64.9407 120.473 64.9485 120.493 64.9487H120.493Z" fill="#CCCCCC"/>
<path d="M148.583 19.6409H159.48C159.583 19.6408 159.685 19.6645 159.778 19.7102L162.528 21.0856C162.619 21.124 162.696 21.1882 162.75 21.2701C162.805 21.352 162.833 21.4481 162.833 21.5463C162.833 21.6446 162.805 21.7406 162.75 21.8226C162.696 21.9045 162.619 21.9687 162.528 22.0071L159.778 23.3825C159.685 23.4281 159.583 23.4519 159.48 23.4518H148.583C148.433 23.4604 148.285 23.4097 148.172 23.3105C148.059 23.2113 147.99 23.0716 147.979 22.9217V20.1709C147.99 20.0211 148.059 19.8814 148.172 19.7822C148.285 19.683 148.433 19.6322 148.583 19.6409Z" fill="#3F3D56"/>
<path d="M147.979 20.171V22.9217C147.99 23.0716 148.059 23.2113 148.172 23.3105C148.285 23.4097 148.433 23.4605 148.583 23.4518H150.754V19.6409H148.583C148.433 19.6322 148.285 19.683 148.172 19.7822C148.059 19.8814 147.99 20.0211 147.979 20.171Z" fill="white"/>
<path d="M213.914 73.5408C212.511 74.0335 211.004 74.1569 209.54 73.8991C208.075 73.6414 206.701 73.0112 205.551 72.0692C202.622 69.6133 201.704 65.5673 200.956 61.8209C200.22 58.1272 199.483 54.4334 198.746 50.7397L203.373 53.9225C206.701 56.2114 210.104 58.5735 212.408 61.8889C214.712 65.2042 215.718 69.7298 213.867 73.3172" fill="#E6E6E6"/>
<path d="M213.519 86.9568C213.987 83.549 214.468 80.0975 214.14 76.6531C213.848 73.5942 212.914 70.6065 211.012 68.1568C210.002 66.8589 208.774 65.747 207.382 64.8708C207.019 64.6419 206.685 65.2166 207.046 65.4445C209.455 66.9652 211.318 69.2107 212.367 71.8573C213.525 74.8005 213.711 78.0088 213.512 81.1353C213.391 83.026 213.135 84.9043 212.877 86.7802C212.857 86.865 212.87 86.9544 212.913 87.0302C212.956 87.1061 213.026 87.1628 213.109 87.1888C213.194 87.2117 213.285 87.2002 213.362 87.1567C213.438 87.1133 213.495 87.0415 213.519 86.9568L213.519 86.9568Z" fill="#F2F2F2"/>
<path d="M209.008 80.9266C208.406 81.8403 207.579 82.5837 206.606 83.0853C205.633 83.5869 204.547 83.8298 203.453 83.7905C200.641 83.6571 198.297 81.6967 196.186 79.8355L189.944 74.3305L194.075 74.133C197.046 73.991 200.094 73.8585 202.923 74.7737C205.753 75.6888 208.362 77.8912 208.88 80.8169" fill="#E6E6E6"/>
<path d="M214.842 88.9158C212.588 84.9314 209.973 80.5031 205.301 79.0878C204.002 78.6956 202.64 78.5551 201.288 78.6739C200.862 78.7106 200.968 79.3667 201.394 79.33C203.66 79.1421 205.921 79.7398 207.798 81.0226C209.604 82.2504 211.01 83.9573 212.2 85.7675C212.929 86.8763 213.582 88.0321 214.235 89.1864C214.443 89.5553 215.053 89.289 214.842 88.9158L214.842 88.9158Z" fill="#F2F2F2"/>
<path d="M218.454 93.1097C218.378 92.2305 218.062 91.3891 217.541 90.6769C217.019 89.9648 216.312 89.4093 215.496 89.0709V86.7674H211.628V89.1434C210.853 89.4985 210.185 90.0526 209.694 90.7494C209.202 91.4461 208.905 92.2606 208.831 93.1097L207.922 103.67H219.364L218.454 93.1097Z" fill="#F2F2F2"/>
<path d="M86.9226 42.6866L88.0732 42.2027L88.8625 36.4412H99.3731L100.229 42.1791L101.258 42.6932C101.307 42.7178 101.347 42.7583 101.37 42.8081C101.393 42.858 101.399 42.9142 101.387 42.9677C101.374 43.0213 101.344 43.069 101.3 43.1031C101.257 43.1372 101.204 43.1558 101.149 43.1558H87.0175C86.9611 43.1558 86.9064 43.1363 86.8627 43.1006C86.819 43.0649 86.789 43.0152 86.7779 42.9599C86.7667 42.9047 86.775 42.8473 86.8014 42.7975C86.8278 42.7476 86.8706 42.7085 86.9226 42.6866Z" fill="#E6E6E6"/>
<path d="M68.2445 37.2077H119.876C120.147 37.2071 120.406 37.0992 120.598 36.9076C120.789 36.7161 120.896 36.4565 120.896 36.1859V28.9131H67.2239V36.1859C67.2239 36.4565 67.3313 36.7161 67.5226 36.9076C67.714 37.0992 67.9736 37.2071 68.2445 37.2077Z" fill="#CCCCCC"/>
<path d="M67.1699 32.3504H120.943V1.23175C120.943 0.905181 120.813 0.592093 120.582 0.361175C120.351 0.130257 120.037 0.000365414 119.71 0H68.403C68.0761 0.000365408 67.7626 0.130257 67.5315 0.361175C67.3003 0.592093 67.1702 0.90518 67.1699 1.23175L67.1699 32.3504Z" fill="#3F3D56"/>
<path d="M70.3816 30.0918H117.732C117.984 30.0916 118.226 29.9914 118.404 29.8134C118.582 29.6354 118.682 29.394 118.682 29.1422V3.20819C118.682 2.95642 118.582 2.71504 118.404 2.537C118.226 2.35897 117.984 2.25883 117.732 2.25854H70.3816C70.1296 2.25883 69.8879 2.35897 69.7097 2.537C69.5315 2.71504 69.4312 2.95642 69.4309 3.20819V29.1422C69.4312 29.394 69.5315 29.6354 69.7097 29.8134C69.8879 29.9914 70.1296 30.0916 70.3816 30.0918Z" fill="white"/>
<path d="M82.8529 39.2427C82.5472 38.9606 82.1833 38.7489 81.7868 38.6225C81.3904 38.4961 80.971 38.4581 80.5582 38.5112C80.1455 38.5642 79.7494 38.707 79.3978 38.9295C79.0463 39.152 78.7479 39.4488 78.5236 39.7989L72.1189 38.6615L70.4776 42.3808L79.5449 43.8602C80.1587 44.1976 80.8752 44.2983 81.5585 44.1433C82.2417 43.9883 82.8443 43.5883 83.2521 43.0191C83.6598 42.45 83.8444 41.7512 83.7709 41.0551C83.6973 40.3591 83.3707 39.7142 82.8529 39.2427Z" fill="#FFB6B6"/>
<path d="M76.9232 43.9916L70.2462 43.9085L69.401 43.897L55.8164 43.7261C55.8164 43.7261 52.1274 40.2105 48.9151 36.591L49.3654 33.338C49.8046 30.1455 51.3899 27.2212 53.8265 25.1092C58.4271 28.18 61.0952 34.2583 61.0952 34.2583L69.5181 36.2707L70.3608 36.472L75.5944 37.7213L76.9232 43.9916Z" fill="white"/>
<path d="M42.7428 63.9858H55.2063C55.2063 64.5193 68.8306 64.9522 68.8306 64.9522C69.1311 65.1783 69.405 65.4376 69.6471 65.7253C70.3744 66.5918 70.7719 67.6871 70.7695 68.8178V69.5909C70.769 70.8723 70.2592 72.1011 69.3521 73.0072C68.4451 73.9133 67.215 74.4225 65.9322 74.4229H42.7429C41.4603 74.4218 40.2305 73.9124 39.3236 73.0065C38.4167 72.1005 37.9067 70.8721 37.9056 69.5909V68.8178C37.9074 67.5368 38.4176 66.3088 39.3243 65.403C40.2311 64.4972 41.4605 63.9876 42.7428 63.9858Z" fill="#E4E4E4"/>
<path d="M51.8062 74.231H56.837V103.237H51.8062V74.231Z" fill="#E4E4E4"/>
<path d="M71.1553 103.061C71.1553 103.604 63.5319 103.271 54.1281 103.271C44.7242 103.271 37.1009 103.604 37.1009 103.061C37.1009 102.518 44.7242 98.2119 54.1281 98.2119C63.5319 98.2119 71.1553 102.518 71.1553 103.061Z" fill="#E4E4E4"/>
<path d="M74.5347 99.7465L78.2788 99.7462L80.0599 85.3204L74.5342 85.3206L74.5347 99.7465Z" fill="#FFB6B6"/>
<path d="M73.5799 103.372L85.6524 103.371V103.219C85.6523 101.974 85.1572 100.78 84.276 99.8998C83.3948 99.0196 82.1997 98.5251 80.9534 98.525H80.9531L73.5796 98.5253L73.5799 103.372Z" fill="#2F2E41"/>
<path d="M85.6006 99.7465L89.3448 99.7462L91.1259 85.3204L85.6002 85.3206L85.6006 99.7465Z" fill="#FFB6B6"/>
<path d="M84.6458 103.372L96.7184 103.371V103.219C96.7183 101.974 96.2232 100.78 95.342 99.8998C94.4608 99.0196 93.2656 98.5251 92.0194 98.525H92.0191L84.6456 98.5253L84.6458 103.372Z" fill="#2F2E41"/>
<path d="M52.0619 16.6954C48.4666 16.6954 45.552 13.784 45.552 10.1925C45.552 6.60109 48.4666 3.68966 52.0619 3.68966C55.6572 3.68966 58.5718 6.60109 58.5718 10.1925C58.5718 13.784 55.6572 16.6954 52.0619 16.6954Z" fill="#FFB6B6"/>
<path d="M41.5257 54.7477C41.5257 54.7477 39.3414 66.2853 47.6523 67.7545C55.9631 69.2237 67.96 70.2564 67.96 70.2564L73.3474 95.3647L80.5853 94.7192C80.5853 94.7192 79.6227 64.4944 77.2555 62.1297C74.8882 59.765 59.9263 52.6846 59.9263 52.6846L41.5257 54.7477Z" fill="#2F2E41"/>
<path d="M57.7574 49.9122L61.3922 53.5546C61.3922 53.5546 87.6373 57.7774 88.6498 63.8326C90.1784 72.9745 91.9839 92.8541 91.9839 92.8541L84.093 92.263L80.9987 69.6652L68.3734 66.7964L54.0092 58.9768L57.7574 49.9122Z" fill="#2F2E41"/>
<path d="M45.7975 6.3108C46.4402 5.09965 47.2567 2.68584 48.5538 2.23817C49.2741 1.99959 50.0185 1.84117 50.7737 1.76578L52.9783 2.61281L51.7784 1.68061C52.012 1.66671 52.2455 1.65534 52.4789 1.64651L53.9664 2.21801L53.2054 1.62674C54.5922 1.61252 56.0236 1.75656 57.0982 2.59987C58.0143 3.31879 58.9219 6.04221 59.0686 7.19661C59.2255 8.30096 59.1706 9.42504 58.9068 10.5089L58.5301 10.8667C58.3983 10.5649 58.2993 10.2498 58.2346 9.92695C58.0995 9.32366 57.8401 8.75509 57.4729 8.25748C57.1057 7.75986 56.6388 7.34412 56.1019 7.03674L56.0813 7.02519C55.4495 6.66999 54.6829 6.68636 53.9583 6.71241L50.5172 6.8361C49.6893 6.86586 48.7978 6.91819 48.1524 7.43695C47.7421 7.81962 47.4196 8.28637 47.2068 8.80521C46.8861 9.45182 46.2594 11.8907 46.2594 11.8907C46.2594 11.8907 45.9048 11.4303 45.7348 11.773C45.4623 10.879 45.2966 9.95591 45.2412 9.02302C45.187 8.08597 45.3787 7.15103 45.7975 6.3108Z" fill="#2F2E41"/>
<path d="M23.0287 13.0483C23.4439 13.0756 23.8482 13.1935 24.2129 13.3938C24.5776 13.594 24.8939 13.8717 25.1395 14.2073C25.3852 14.5429 25.5542 14.9281 25.6346 15.336C25.715 15.7439 25.705 16.1644 25.6051 16.568L30.8401 20.4254L29.2693 24.1749L21.9531 18.6238C21.2856 18.4113 20.7192 17.9616 20.3614 17.3598C20.0036 16.7581 19.8792 16.0461 20.0117 15.3588C20.1443 14.6716 20.5247 14.0568 21.0807 13.6309C21.6367 13.2051 22.3298 12.9978 23.0287 13.0483Z" fill="#FFB6B6"/>
<path d="M23.8712 20.9231L36.9947 35.4825C36.9947 35.4825 43.2707 33.4755 48.1243 31.2997L50.3049 24.6099C50.8112 23.0579 51.0273 21.4261 50.9423 19.796C44.2138 18.0075 36.3876 24.6623 36.3876 24.6623L26.5641 16.9759L23.8712 20.9231Z" fill="white"/>
<path d="M54.4935 55.823C56.8349 55.0151 59.256 54.1797 61.8674 53.8661L61.9796 53.8526L61.9486 53.7441C59.2453 44.2628 59.92 38.1977 61.2448 29.0871C61.5265 27.122 61.1645 25.1185 60.2128 23.3757C59.261 21.633 57.7706 20.2444 55.964 19.4172L55.948 19.41L48.4896 18.9366L48.4725 18.9355L43.0482 20.5292C42.2679 20.7601 41.5849 21.2402 41.1038 21.896C40.6228 22.5518 40.3703 23.347 40.385 24.1598C40.4438 27.156 40.3191 30.5012 40.1872 34.0427C39.8912 41.9878 39.5851 50.2035 41.3219 55.5341L41.3311 55.562L41.3542 55.5802C42.951 56.8792 44.9514 57.5811 47.0106 57.5649C49.4453 57.5649 51.9299 56.7076 54.4935 55.823Z" fill="white"/>
<path d="M0.346848 104H239.653C239.745 104 239.833 103.963 239.898 103.899C239.963 103.834 240 103.745 240 103.654C240 103.562 239.963 103.474 239.898 103.409C239.833 103.344 239.745 103.307 239.653 103.307H0.346848C0.254868 103.307 0.166641 103.344 0.101608 103.409C0.0365601 103.474 4.57764e-05 103.562 4.57764e-05 103.654C4.57764e-05 103.745 0.0365601 103.834 0.101608 103.899C0.166641 103.963 0.254868 104 0.346848 104Z" fill="#CCCCCC"/>
</g>
<defs>
<clipPath id="clip0_1_1101">
<rect width="240" height="104" fill="white" transform="matrix(-1 0 0 1 240 0)"/>
</clipPath>
</defs>
</svg>
